  0
SECTION
  2
HEADER
  9
$ACADVER
  1
AC1006
  9
$EXTMIN
 10
0.000000
 20
0.000000
 30
0.000000
  9
$EXTMAX
 10
10000.000000
 20
7071.000000
 30
0.000000
  0
ENDSEC
  0
SECTION
  2
ENTITIES
  0
POLYLINE
  8
0
 66
1
 70
1
  0
VERTEX
  8
0
 10
4133.750000
 20
4293.250001
 42
0.000041
  0
VERTEX
  8
0
 10
4569.973837
 20
4293.171731
 42
0.000024
  0
VERTEX
  8
0
 10
5092.000000
 20
4293.146447
 42
0.000024
  0
VERTEX
  8
0
 10
5614.026163
 20
4293.171731
 42
0.000041
  0
VERTEX
  8
0
 10
6050.250000
 20
4293.250001
 42
0.000270
  0
VERTEX
  8
0
 10
6164.042234
 20
4293.341155
 42
0.999199
  0
VERTEX
  8
0
 10
6164.042188
 20
4293.427298
 42
0.000055
  0
VERTEX
  8
0
 10
5779.260235
 20
4293.486077
 42
0.000011
  0
VERTEX
  8
0
 10
5092.000000
 20
4293.501041
 42
0.000011
  0
VERTEX
  8
0
 10
4404.739765
 20
4293.486077
 42
0.000055
  0
VERTEX
  8
0
 10
4019.957813
 20
4293.427298
 42
0.999199
  0
VERTEX
  8
0
 10
4019.957766
 20
4293.341155
 42
0.000270
  0
SEQEND
  0
POLYLINE
  8
0
 66
1
 70
1
  0
VERTEX
  8
0
 10
1935.495431
 20
2623.000000
 42
0.000049
  0
VERTEX
  8
0
 10
1935.510604
 20
2467.904755
 42
0.000245
  0
VERTEX
  8
0
 10
1935.570207
 20
2381.070312
 42
0.996407
  0
VERTEX
  8
0
 10
1935.657556
 20
2381.070101
 42
0.001211
  0
VERTEX
  8
0
 10
1935.749988
 20
2406.750000
 42
0.000185
  0
VERTEX
  8
0
 10
1935.829354
 20
2505.193419
 42
0.000109
  0
VERTEX
  8
0
 10
1935.854993
 20
2623.000000
 42
0.000109
  0
VERTEX
  8
0
 10
1935.829354
 20
2740.806581
 42
0.000185
  0
VERTEX
  8
0
 10
1935.749988
 20
2839.250000
 42
0.001211
  0
VERTEX
  8
0
 10
1935.657556
 20
2864.929899
 42
0.996407
  0
VERTEX
  8
0
 10
1935.570207
 20
2864.929688
 42
0.000245
  0
VERTEX
  8
0
 10
1935.510604
 20
2778.095245
 42
0.000049
  0
SEQEND
  0
POLYLINE
  8
0
 66
1
 70
1
  0
VERTEX
  8
0
 10
8246.495431
 20
2623.000000
 42
0.000049
  0
VERTEX
  8
0
 10
8246.510604
 20
2467.904755
 42
0.000245
  0
VERTEX
  8
0
 10
8246.570207
 20
2381.070312
 42
0.996407
  0
VERTEX
  8
0
 10
8246.657556
 20
2381.070101
 42
0.001211
  0
VERTEX
  8
0
 10
8246.749988
 20
2406.750000
 42
0.000185
  0
VERTEX
  8
0
 10
8246.829354
 20
2505.193419
 42
0.000109
  0
VERTEX
  8
0
 10
8246.854993
 20
2623.000000
 42
0.000109
  0
VERTEX
  8
0
 10
8246.829354
 20
2740.806581
 42
0.000185
  0
VERTEX
  8
0
 10
8246.749988
 20
2839.250000
 42
0.001211
  0
VERTEX
  8
0
 10
8246.657556
 20
2864.929899
 42
0.996407
  0
VERTEX
  8
0
 10
8246.570207
 20
2864.929688
 42
0.000245
  0
VERTEX
  8
0
 10
8246.510604
 20
2778.095245
 42
0.000049
  0
SEQEND
  0
POLYLINE
  8
0
 66
1
 70
1
  0
VERTEX
  8
0
 10
3513.250000
 20
2189.250000
 42
0.000025
  0
VERTEX
  8
0
 10
4231.488621
 20
2189.171858
 42
0.000015
  0
VERTEX
  8
0
 10
5091.000000
 20
2189.146614
 42
0.000015
  0
VERTEX
  8
0
 10
5950.511379
 20
2189.171858
 42
0.000025
  0
VERTEX
  8
0
 10
6668.750000
 20
2189.250000
 42
0.000163
  0
VERTEX
  8
0
 10
6856.107841
 20
2189.341007
 42
0.999514
  0
VERTEX
  8
0
 10
6856.107812
 20
2189.427009
 42
0.000033
  0
VERTEX
  8
0
 10
6222.567794
 20
2189.485694
 42
0.000007
  0
VERTEX
  8
0
 10
5091.000000
 20
2189.500633
 42
0.000007
  0
VERTEX
  8
0
 10
3959.432206
 20
2189.485694
 42
0.000033
  0
VERTEX
  8
0
 10
3325.892187
 20
2189.427009
 42
0.999514
  0
VERTEX
  8
0
 10
3325.892159
 20
2189.341007
 42
0.000163
  0
SEQEND
  0
ENDSEC
  0
EOF
