  0
SECTION
  2
HEADER
  9
$ACADVER
  1
AC1006
  9
$EXTMIN
 10
0.000000
 20
0.000000
 30
0.000000
  9
$EXTMAX
 10
2308.000000
 20
845.000000
 30
0.000000
  0
ENDSEC
  0
SECTION
  2
ENTITIES
  0
POLYLINE
  8
0
 66
1
 70
1
  0
VERTEX
  8
0
 10
460.500000
 20
815.005227
 42
0.000000
  0
VERTEX
  8
0
 10
320.500000
 20
814.500000
 42
0.000000
  0
VERTEX
  8
0
 10
320.814964
 20
811.349167
 42
-0.059141
  0
VERTEX
  8
0
 10
320.765863
 20
808.697092
 42
-0.270349
  0
VERTEX
  8
0
 10
319.852247
 20
807.531338
 42
-0.266138
  0
VERTEX
  8
0
 10
318.373256
 20
807.743118
 42
-0.057950
  0
VERTEX
  8
0
 10
316.466657
 20
809.622515
 42
0.000000
  0
VERTEX
  8
0
 10
314.154880
 20
812.500000
 42
0.000000
  0
VERTEX
  8
0
 10
310.827440
 20
809.444145
 42
0.001291
  0
VERTEX
  8
0
 10
309.115112
 20
807.863405
 42
0.000409
  0
VERTEX
  8
0
 10
306.568061
 20
805.495998
 42
0.000408
  0
VERTEX
  8
0
 10
303.732592
 20
802.851866
 42
0.000454
  0
VERTEX
  8
0
 10
301.000000
 20
800.294846
 42
-0.000672
  0
VERTEX
  8
0
 10
295.024275
 20
794.707964
 42
-0.002126
  0
VERTEX
  8
0
 10
291.000539
 20
790.988042
 42
-0.002927
  0
VERTEX
  8
0
 10
287.714211
 20
788.010880
 42
-0.002725
  0
VERTEX
  8
0
 10
284.314205
 20
785.000000
 42
0.006298
  0
VERTEX
  8
0
 10
279.469110
 20
780.647239
 42
0.000889
  0
VERTEX
  8
0
 10
269.620927
 20
771.540578
 42
0.001017
  0
VERTEX
  8
0
 10
259.766430
 20
762.358123
 42
0.004215
  0
VERTEX
  8
0
 10
253.872729
 20
756.750000
 42
-0.004164
  0
VERTEX
  8
0
 10
252.362518
 20
755.312673
 42
-0.006478
  0
VERTEX
  8
0
 10
251.034511
 20
754.101562
 42
-0.002379
  0
VERTEX
  8
0
 10
249.879584
 20
753.085179
 42
-0.181174
  0
VERTEX
  8
0
 10
249.652224
 20
753.000000
 42
0.188419
  0
VERTEX
  8
0
 10
249.415339
 20
752.907446
 42
0.000558
  0
VERTEX
  8
0
 10
246.939735
 20
750.619332
 42
0.003105
  0
VERTEX
  8
0
 10
244.149887
 20
748.002607
 42
0.001923
  0
VERTEX
  8
0
 10
240.903369
 20
744.895599
 42
-0.003292
  0
VERTEX
  8
0
 10
237.427853
 20
741.587613
 42
-0.003364
  0
VERTEX
  8
0
 10
233.934084
 20
738.349789
 42
-0.003263
  0
VERTEX
  8
0
 10
230.863007
 20
735.578444
 42
-0.014024
  0
VERTEX
  8
0
 10
228.978620
 20
733.992640
 42
0.009934
  0
VERTEX
  8
0
 10
227.313301
 20
732.614299
 42
0.004447
  0
VERTEX
  8
0
 10
225.176051
 20
730.739215
 42
0.004400
  0
VERTEX
  8
0
 10
222.950747
 20
728.716086
 42
0.005961
  0
VERTEX
  8
0
 10
220.978620
 20
726.847041
 42
-0.004396
  0
VERTEX
  8
0
 10
214.687053
 20
720.846837
 42
-0.000862
  0
VERTEX
  8
0
 10
203.262930
 20
710.178907
 42
-0.000885
  0
VERTEX
  8
0
 10
191.781240
 20
699.532103
 42
-0.004018
  0
VERTEX
  8
0
 10
185.029910
 20
693.393734
 42
0.003031
  0
VERTEX
  8
0
 10
182.372676
 20
690.987319
 42
0.001256
  0
VERTEX
  8
0
 10
178.807873
 20
687.702933
 42
0.001242
  0
VERTEX
  8
0
 10
175.004694
 20
684.163627
 42
0.001602
  0
VERTEX
  8
0
 10
171.529910
 20
680.892845
 42
-0.002077
  0
VERTEX
  8
0
 10
168.165076
 20
677.731579
 42
-0.001937
  0
VERTEX
  8
0
 10
164.695168
 20
674.523644
 42
-0.001929
  0
VERTEX
  8
0
 10
161.590267
 20
671.697364
 42
-0.006585
  0
VERTEX
  8
0
 10
159.538747
 20
669.892845
 42
0.002328
  0
VERTEX
  8
0
 10
156.568252
 20
667.324518
 42
0.005688
  0
VERTEX
  8
0
 10
154.411496
 20
665.398477
 42
0.003031
  0
VERTEX
  8
0
 10
151.650181
 20
662.844619
 42
0.000282
  0
VERTEX
  8
0
 10
144.880712
 20
656.500000
 42
-0.001173
  0
VERTEX
  8
0
 10
141.625207
 20
653.459680
 42
-0.000865
  0
VERTEX
  8
0
 10
138.007945
 20
650.109013
 42
-0.000874
  0
VERTEX
  8
0
 10
134.578096
 20
646.954049
 42
-0.001961
  0
VERTEX
  8
0
 10
131.960211
 20
644.573237
 42
0.002338
  0
VERTEX
  8
0
 10
121.079075
 20
634.662449
 42
0.001102
  0
VERTEX
  8
0
 10
107.116098
 20
621.767746
 42
0.001016
  0
VERTEX
  8
0
 10
93.737634
 20
609.307430
 42
0.004285
  0
VERTEX
  8
0
 10
85.793863
 20
601.750000
 42
-0.004976
  0
VERTEX
  8
0
 10
84.278991
 20
600.312785
 42
-0.007637
  0
VERTEX
  8
0
 10
82.936051
 20
599.101562
 42
-0.003271
  0
VERTEX
  8
0
 10
81.774052
 20
598.098627
 42
-0.178231
  0
VERTEX
  8
0
 10
81.506159
 20
598.000000
 42
0.182647
  0
VERTEX
  8
0
 10
81.236655
 20
597.898154
 42
0.002700
  0
VERTEX
  8
0
 10
79.950317
 20
596.751562
 42
0.006949
  0
VERTEX
  8
0
 10
78.468958
 20
595.378934
 42
0.004484
  0
VERTEX
  8
0
 10
76.789691
 20
593.750000
 42
-0.004441
  0
VERTEX
  8
0
 10
74.645881
 20
591.670090
 42
-0.001743
  0
VERTEX
  8
0
 10
71.654734
 20
588.839063
 42
-0.001725
  0
VERTEX
  8
0
 10
68.398759
 20
585.799911
 42
-0.002150
  0
VERTEX
  8
0
 10
65.352097
 20
583.000000
 42
-0.000463
  0
VERTEX
  8
0
 10
56.935209
 20
575.345568
 42
-0.000866
  0
VERTEX
  8
0
 10
50.105745
 20
569.167862
 42
-0.000827
  0
VERTEX
  8
0
 10
44.804473
 20
564.405049
 42
-0.006549
  0
VERTEX
  8
0
 10
42.317890
 20
562.236464
 42
0.000000
  0
VERTEX
  8
0
 10
40.135780
 20
560.383171
 42
0.000000
  0
VERTEX
  8
0
 10
43.067890
 20
557.245819
 42
-0.009328
  0
VERTEX
  8
0
 10
44.191183
 20
555.998030
 42
-0.013253
  0
VERTEX
  8
0
 10
45.138693
 20
554.844796
 42
-0.009258
  0
VERTEX
  8
0
 10
45.877055
 20
553.858790
 42
-0.157340
  0
VERTEX
  8
0
 10
46.000000
 20
553.477765
 42
-0.369554
  0
VERTEX
  8
0
 10
45.799935
 20
553.244048
 42
-0.019702
  0
VERTEX
  8
0
 10
44.751562
 20
553.122477
 42
-0.023159
  0
VERTEX
  8
0
 10
43.379498
 20
553.081664
 42
-0.013878
  0
VERTEX
  8
0
 10
41.750000
 20
553.153943
 42
0.000000
  0
VERTEX
  8
0
 10
37.500000
 20
553.460823
 42
0.000000
  0
VERTEX
  8
0
 10
37.500000
 20
301.480412
 42
0.000000
  0
VERTEX
  8
0
 10
37.500000
 20
49.500000
 42
0.000000
  0
VERTEX
  8
0
 10
42.000000
 20
49.000000
 42
0.000000
  0
VERTEX
  8
0
 10
46.500000
 20
48.500000
 42
0.000000
  0
VERTEX
  8
0
 10
46.500000
 20
44.000000
 42
0.000000
  0
VERTEX
  8
0
 10
46.500000
 20
39.500000
 42
0.000000
  0
VERTEX
  8
0
 10
1144.500000
 20
39.500000
 42
0.000000
  0
VERTEX
  8
0
 10
2242.500000
 20
39.500000
 42
0.000000
  0
VERTEX
  8
0
 10
2242.500000
 20
44.000000
 42
0.000000
  0
VERTEX
  8
0
 10
2242.500000
 20
48.500000
 42
0.000000
  0
VERTEX
  8
0
 10
2247.000000
 20
49.000000
 42
0.000000
  0
VERTEX
  8
0
 10
2251.500000
 20
49.500000
 42
0.000000
  0
VERTEX
  8
0
 10
2251.751957
 20
301.250000
 42
0.000000
  0
VERTEX
  8
0
 10
2252.003914
 20
553.000000
 42
0.000000
  0
VERTEX
  8
0
 10
2248.060974
 20
553.000000
 42
-0.027782
  0
VERTEX
  8
0
 10
2244.931809
 20
553.174005
 42
-0.228598
  0
VERTEX
  8
0
 10
2243.756298
 20
553.911933
 42
-0.310275
  0
VERTEX
  8
0
 10
2243.804954
 20
555.099044
 42
-0.043510
  0
VERTEX
  8
0
 10
2245.530820
 20
557.028954
 42
0.028403
  0
VERTEX
  8
0
 10
2247.224419
 20
558.811498
 42
0.113697
  0
VERTEX
  8
0
 10
2247.910446
 20
560.140233
 42
0.429315
  0
VERTEX
  8
0
 10
2247.551853
 20
560.711108
 42
0.142275
  0
VERTEX
  8
0
 10
2246.448062
 20
560.618443
 42
-0.036022
  0
VERTEX
  8
0
 10
2245.864014
 20
560.441357
 42
-0.158392
  0
VERTEX
  8
0
 10
2245.510044
 20
560.473941
 42
-0.331562
  0
VERTEX
  8
0
 10
2245.392969
 20
560.676292
 42
-0.109884
  0
VERTEX
  8
0
 10
2245.512679
 20
561.020514
 42
0.338311
  0
VERTEX
  8
0
 10
2245.403689
 20
562.119232
 42
0.006731
  0
VERTEX
  8
0
 10
2241.268009
 20
566.429040
 42
0.010775
  0
VERTEX
  8
0
 10
2235.404825
 20
572.125798
 42
0.003687
  0
VERTEX
  8
0
 10
2226.669108
 20
580.135649
 42
-0.001977
  0
VERTEX
  8
0
 10
2224.256404
 20
582.332735
 42
-0.000722
  0
VERTEX
  8
0
 10
2220.857616
 20
585.461503
 42
-0.000715
  0
VERTEX
  8
0
 10
2217.150815
 20
588.893544
 42
-0.000856
  0
VERTEX
  8
0
 10
2213.669108
 20
592.137552
 42
0.000970
  0
VERTEX
  8
0
 10
2210.185961
 20
595.381418
 42
0.000810
  0
VERTEX
  8
0
 10
2206.474807
 20
598.813042
 42
0.000817
  0
VERTEX
  8
0
 10
2203.069827
 20
601.941065
 42
0.002234
  0
VERTEX
  8
0
 10
2200.649384
 20
604.137552
 42
-0.000779
  0
VERTEX
  8
0
 10
2195.296853
 20
608.966506
 42
-0.001855
  0
VERTEX
  8
0
 10
2191.337780
 20
612.576315
 42
-0.001906
  0
VERTEX
  8
0
 10
2187.469736
 20
616.156773
 42
-0.000867
  0
VERTEX
  8
0
 10
2182.437756
 20
620.866713
 42
0.001248
  0
VERTEX
  8
0
 10
2173.556673
 20
629.166744
 42
0.000849
  0
VERTEX
  8
0
 10
2163.410595
 20
638.569623
 42
0.000769
  0
VERTEX
  8
0
 10
2154.031374
 20
647.205581
 42
0.003607
  0
VERTEX
  8
0
 10
2148.593662
 20
652.125136
 42
-0.002668
  0
VERTEX
  8
0
 10
2146.185961
 20
654.295200
 42
-0.001055
  0
VERTEX
  8
0
 10
2142.897922
 20
657.303392
 42
-0.001044
  0
VERTEX
  8
0
 10
2139.360350
 20
660.567275
 42
-0.001309
  0
VERTEX
  8
0
 10
2136.093662
 20
663.609815
 42
0.001519
  0
VERTEX
  8
0
 10
2132.823031
 20
666.653457
 42
0.001207
  0
VERTEX
  8
0
 10
2129.273473
 20
669.920738
 42
0.001220
  0
VERTEX
  8
0
 10
2125.968433
 20
672.933447
 42
0.003061
  0
VERTEX
  8
0
 10
2123.539437
 20
675.109815
 42
-0.004475
  0
VERTEX
  8
0
 10
2119.292537
 20
678.936714
 42
-0.001622
  0
VERTEX
  8
0
 10
2113.332098
 20
684.440852
 42
-0.001516
  0
VERTEX
  8
0
 10
2106.450552
 20
690.876074
 42
-0.001266
  0
VERTEX
  8
0
 10
2099.181388
 20
697.750000
 42
0.003284
  0
VERTEX
  8
0
 10
2097.444631
 20
699.379103
 42
0.005180
  0
VERTEX
  8
0
 10
2095.930924
 20
700.751562
 42
0.001549
  0
VERTEX
  8
0
 10
2094.606124
 20
701.920645
 42
0.181954
  0
VERTEX
  8
0
 10
2094.395281
 20
702.000000
 42
-0.182426
  0
VERTEX
  8
0
 10
2094.186900
 20
702.078646
 42
-0.002003
  0
VERTEX
  8
0
 10
2093.034103
 20
703.101563
 42
-0.005931
  0
VERTEX
  8
0
 10
2091.712139
 20
704.312620
 42
-0.003788
  0
VERTEX
  8
0
 10
2090.203096
 20
705.750000
 42
0.003962
  0
VERTEX
  8
0
 10
2088.012265
 20
707.835338
 42
0.000814
  0
VERTEX
  8
0
 10
2084.111988
 20
711.477427
 42
0.000857
  0
VERTEX
  8
0
 10
2079.566405
 20
715.693751
 42
0.000806
  0
VERTEX
  8
0
 10
2074.912696
 20
719.981665
 42
-0.001067
  0
VERTEX
  8
0
 10
2070.214875
 20
724.314760
 42
-0.001068
  0
VERTEX
  8
0
 10
2065.536885
 20
728.666670
 42
-0.001043
  0
VERTEX
  8
0
 10
2061.469912
 20
732.482305
 42
-0.004246
  0
VERTEX
  8
0
 10
2059.021380
 20
734.828706
 42
0.005983
  0
VERTEX
  8
0
 10
2057.049250
 20
736.705482
 42
0.004418
  0
VERTEX
  8
0
 10
2054.823949
 20
738.736674
 42
0.004466
  0
VERTEX
  8
0
 10
2052.686682
 20
740.619003
 42
0.009981
  0
VERTEX
  8
0
 10
2051.021380
 20
742.002325
 42
-0.010491
  0
VERTEX
  8
0
 10
2049.287874
 20
743.445294
 42
-0.003839
  0
VERTEX
  8
0
 10
2046.895490
 20
745.555657
 42
-0.003804
  0
VERTEX
  8
0
 10
2044.314896
 20
747.903152
 42
-0.004547
  0
VERTEX
  8
0
 10
2041.920713
 20
750.155284
 42
0.001714
  0
VERTEX
  8
0
 10
2035.750971
 20
756.025206
 42
0.001288
  0
VERTEX
  8
0
 10
2028.923512
 20
762.443241
 42
0.001303
  0
VERTEX
  8
0
 10
2022.214865
 20
768.684432
 42
0.002057
  0
VERTEX
  8
0
 10
2016.423624
 20
774.000000
 42
-0.000615
  0
VERTEX
  8
0
 10
2006.545316
 20
783.014614
 42
-0.000678
  0
VERTEX
  8
0
 10
1997.004816
 20
791.766295
 42
-0.000717
  0
VERTEX
  8
0
 10
1988.664962
 20
799.459555
 42
-0.001891
  0
VERTEX
  8
0
 10
1982.721364
 20
805.000000
 42
0.003462
  0
VERTEX
  8
0
 10
1980.007753
 20
807.513658
 42
0.005074
  0
VERTEX
  8
0
 10
1977.583028
 20
809.683988
 42
0.002543
  0
VERTEX
  8
0
 10
1975.501764
 20
811.490548
 42
0.088605
  0
VERTEX
  8
0
 10
1974.947038
 20
811.817830
 42
0.234333
  0
VERTEX
  8
0
 10
1974.453105
 20
811.766234
 42
0.023714
  0
VERTEX
  8
0
 10
1973.457586
 20
811.067685
 42
0.025758
  0
VERTEX
  8
0
 10
1972.293829
 20
810.065814
 42
0.017634
  0
VERTEX
  8
0
 10
1971.075823
 20
808.817830
 42
0.000000
  0
VERTEX
  8
0
 10
1968.058627
 20
805.500000
 42
0.000000
  0
VERTEX
  8
0
 10
1968.029313
 20
810.084124
 42
0.000000
  0
VERTEX
  8
0
 10
1968.000000
 20
814.668248
 42
0.000000
  0
VERTEX
  8
0
 10
1757.833864
 20
815.334124
 42
0.000714
  0
VERTEX
  8
0
 10
1526.102889
 20
815.737304
 42
0.000141
  0
VERTEX
  8
0
 10
1110.846990
 20
815.749321
 42
0.000142
  0
VERTEX
  8
0
 10
695.416072
 20
815.525750
 42
0.000696
  0
SEQEND
  0
POLYLINE
  8
0
 66
1
 70
1
  0
VERTEX
  8
0
 10
1781.342488
 20
798.334202
 42
0.000000
  0
VERTEX
  8
0
 10
1966.017101
 20
797.668404
 42
0.000000
  0
VERTEX
  8
0
 10
1976.258551
 20
787.838800
 42
0.002240
  0
VERTEX
  8
0
 10
1980.220728
 20
784.069908
 42
0.003592
  0
VERTEX
  8
0
 10
1983.638449
 20
780.894015
 42
0.000762
  0
VERTEX
  8
0
 10
1986.659153
 20
778.135679
 42
0.182130
  0
VERTEX
  8
0
 10
1987.000000
 20
778.000253
 42
-0.180979
  0
VERTEX
  8
0
 10
1987.588331
 20
777.768012
 42
-0.001702
  0
VERTEX
  8
0
 10
1991.084180
 20
774.592270
 42
-0.002806
  0
VERTEX
  8
0
 10
1996.610670
 20
769.480130
 42
-0.000329
  0
VERTEX
  8
0
 10
2008.866233
 20
758.000000
 42
0.001265
  0
VERTEX
  8
0
 10
2012.576660
 20
754.537354
 42
0.001342
  0
VERTEX
  8
0
 10
2016.231603
 20
751.161966
 42
0.001277
  0
VERTEX
  8
0
 10
2019.393688
 20
748.272288
 42
0.006179
  0
VERTEX
  8
0
 10
2021.214210
 20
746.657755
 42
-0.007245
  0
VERTEX
  8
0
 10
2024.562961
 20
743.675132
 42
-0.000776
  0
VERTEX
  8
0
 10
2032.218490
 20
736.633144
 42
-0.001038
  0
VERTEX
  8
0
 10
2040.534038
 20
728.928138
 42
-0.001449
  0
VERTEX
  8
0
 10
2047.936936
 20
722.000000
 42
0.001707
  0
VERTEX
  8
0
 10
2050.007476
 20
720.064250
 42
0.000371
  0
VERTEX
  8
0
 10
2053.595650
 20
716.737500
 42
0.000386
  0
VERTEX
  8
0
 10
2057.754056
 20
712.893754
 42
0.000370
  0
VERTEX
  8
0
 10
2061.979367
 20
709.000000
 42
-0.000543
  0
VERTEX
  8
0
 10
2066.241564
 20
705.069531
 42
-0.000537
  0
VERTEX
  8
0
 10
2070.510649
 20
701.115625
 42
-0.000526
  0
VERTEX
  8
0
 10
2074.240055
 20
697.646796
 42
-0.002078
  0
VERTEX
  8
0
 10
2076.524145
 20
695.500000
 42
0.003649
  0
VERTEX
  8
0
 10
2078.706595
 20
693.461609
 42
0.001181
  0
VERTEX
  8
0
 10
2081.965832
 20
690.475921
 42
0.001177
  0
VERTEX
  8
0
 10
2085.605386
 20
687.173265
 42
0.001322
  0
VERTEX
  8
0
 10
2089.122337
 20
684.013774
 42
-0.000597
  0
VERTEX
  8
0
 10
2092.369150
 20
681.105459
 42
-0.000905
  0
VERTEX
  8
0
 10
2095.185936
 20
678.567042
 42
-0.000331
  0
VERTEX
  8
0
 10
2097.607344
 20
676.374059
 42
-0.022567
  0
VERTEX
  8
0
 10
2098.000000
 20
675.984279
 42
0.019873
  0
VERTEX
  8
0
 10
2099.101100
 20
674.879406
 42
0.000218
  0
VERTEX
  8
0
 10
2106.900497
 20
667.658085
 42
0.000741
  0
VERTEX
  8
0
 10
2115.320645
 20
659.891962
 42
0.000700
  0
VERTEX
  8
0
 10
2123.926875
 20
652.000000
 42
-0.000380
  0
VERTEX
  8
0
 10
2128.138447
 20
648.142914
 42
-0.000422
  0
VERTEX
  8
0
 10
2132.202009
 20
644.409375
 42
-0.000390
  0
VERTEX
  8
0
 10
2135.664615
 20
641.217602
 42
-0.002187
  0
VERTEX
  8
0
 10
2137.508793
 20
639.500000
 42
0.001971
  0
VERTEX
  8
0
 10
2139.329208
 20
637.803059
 42
0.000377
  0
VERTEX
  8
0
 10
2142.648947
 20
634.737500
 42
0.000402
  0
VERTEX
  8
0
 10
2146.529071
 20
631.165652
 42
0.000370
  0
VERTEX
  8
0
 10
2150.523459
 20
627.500000
 42
-0.000499
  0
VERTEX
  8
0
 10
2161.181648
 20
617.713899
 42
-0.001230
  0
VERTEX
  8
0
 10
2168.982915
 20
610.501079
 42
-0.001648
  0
VERTEX
  8
0
 10
2175.012653
 20
604.861453
 42
-0.002900
  0
VERTEX
  8
0
 10
2179.953515
 20
600.155284
 42
0.004597
  0
VERTEX
  8
0
 10
2182.333575
 20
597.903639
 42
0.003850
  0
VERTEX
  8
0
 10
2184.898845
 20
595.557614
 42
0.003885
  0
VERTEX
  8
0
 10
2187.277015
 20
593.449321
 42
0.010633
  0
VERTEX
  8
0
 10
2189.000000
 20
592.008988
 42
-0.010402
  0
VERTEX
  8
0
 10
2190.725100
 20
590.568240
 42
-0.003785
  0
VERTEX
  8
0
 10
2193.111166
 20
588.457722
 42
-0.003751
  0
VERTEX
  8
0
 10
2195.687451
 20
586.108794
 42
-0.004470
  0
VERTEX
  8
0
 10
2198.080565
 20
583.853704
 42
0.003176
  0
VERTEX
  8
0
 10
2204.554240
 20
577.721697
 42
0.000998
  0
VERTEX
  8
0
 10
2214.316786
 20
568.627842
 42
0.000974
  0
VERTEX
  8
0
 10
2224.048589
 20
559.634066
 42
0.003639
  0
VERTEX
  8
0
 10
2230.219513
 20
554.035783
 42
0.000000
  0
VERTEX
  8
0
 10
2234.939027
 20
549.816426
 42
0.000000
  0
VERTEX
  8
0
 10
2234.963553
 20
305.158213
 42
-0.000234
  0
VERTEX
  8
0
 10
2234.929025
 20
211.190203
 42
-0.000385
  0
VERTEX
  8
0
 10
2234.801491
 20
131.707413
 42
-0.000023
  0
VERTEX
  8
0
 10
2234.628268
 20
60.114456
 42
-0.065734
  0
VERTEX
  8
0
 10
2234.377409
 20
58.250000
 42
0.000000
  0
VERTEX
  8
0
 10
2233.766737
 20
56.000000
 42
0.000000
  0
VERTEX
  8
0
 10
1143.883369
 20
56.000000
 42
0.000000
  0
VERTEX
  8
0
 10
54.000000
 20
56.000000
 42
0.000000
  0
VERTEX
  8
0
 10
54.000000
 20
302.959694
 42
0.000000
  0
VERTEX
  8
0
 10
54.000000
 20
549.919388
 42
0.000000
  0
VERTEX
  8
0
 10
58.193728
 20
553.709694
 42
0.001594
  0
VERTEX
  8
0
 10
60.029900
 20
555.379902
 42
0.001126
  0
VERTEX
  8
0
 10
62.082897
 20
557.267848
 42
0.001136
  0
VERTEX
  8
0
 10
64.037533
 20
559.081723
 42
0.002395
  0
VERTEX
  8
0
 10
65.544390
 20
560.500000
 42
-0.003246
  0
VERTEX
  8
0
 10
70.189938
 20
564.857579
 42
-0.000595
  0
VERTEX
  8
0
 10
78.834567
 20
572.842405
 42
-0.000528
  0
VERTEX
  8
0
 10
87.515058
 20
580.824293
 42
-0.004354
  0
VERTEX
  8
0
 10
91.500000
 20
584.417351
 42
0.003685
  0
VERTEX
  8
0
 10
93.024809
 20
585.788513
 42
0.001215
  0
VERTEX
  8
0
 10
95.246066
 20
587.825672
 42
0.001210
  0
VERTEX
  8
0
 10
97.698856
 20
590.097175
 42
0.001372
  0
VERTEX
  8
0
 10
100.039800
 20
592.287664
 42
-0.001997
  0
VERTEX
  8
0
 10
102.808480
 20
594.871919
 42
-0.000753
  0
VERTEX
  8
0
 10
106.701486
 20
598.465751
 42
-0.000746
  0
VERTEX
  8
0
 10
110.949438
 20
602.363735
 42
-0.000908
  0
VERTEX
  8
0
 10
114.938587
 20
606.000000
 42
0.001565
  0
VERTEX
  8
0
 10
118.880379
 20
609.602583
 42
0.001364
  0
VERTEX
  8
0
 10
122.985102
 20
613.398438
 42
0.001371
  0
VERTEX
  8
0
 10
126.678807
 20
616.851874
 42
0.004060
  0
VERTEX
  8
0
 10
129.188572
 20
619.250000
 42
-0.003201
  0
VERTEX
  8
0
 10
131.087588
 20
621.070789
 42
-0.005063
  0
VERTEX
  8
0
 10
132.741252
 20
622.604687
 42
-0.001465
  0
VERTEX
  8
0
 10
134.190379
 20
623.914086
 42
-0.185034
  0
VERTEX
  8
0
 10
134.414589
 20
624.000000
 42
0.180834
  0
VERTEX
  8
0
 10
134.638474
 20
624.083709
 42
0.001733
  0
VERTEX
  8
0
 10
135.968954
 20
625.248438
 42
0.005479
  0
VERTEX
  8
0
 10
137.491878
 20
626.620932
 42
0.003486
  0
VERTEX
  8
0
 10
139.235591
 20
628.250000
 42
-0.000683
  0
VERTEX
  8
0
 10
147.759603
 20
636.303543
 42
-0.001687
  0
VERTEX
  8
0
 10
154.039937
 20
642.181153
 42
-0.002063
  0
VERTEX
  8
0
 10
159.552009
 20
647.262756
 42
-0.001676
  0
VERTEX
  8
0
 10
165.500000
 20
652.664508
 42
0.001018
  0
VERTEX
  8
0
 10
169.285446
 20
656.093229
 42
0.000899
  0
VERTEX
  8
0
 10
173.217158
 20
659.681971
 42
0.000903
  0
VERTEX
  8
0
 10
176.748845
 20
662.928992
 42
0.002746
  0
VERTEX
  8
0
 10
179.132879
 20
665.153185
 42
-0.002468
  0
VERTEX
  8
0
 10
181.389714
 20
667.261053
 42
-0.001060
  0
VERTEX
  8
0
 10
184.422067
 20
670.053446
 42
-0.001049
  0
VERTEX
  8
0
 10
187.664705
 20
673.014310
 42
-0.001384
  0
VERTEX
  8
0
 10
190.632879
 20
675.698190
 42
0.001933
  0
VERTEX
  8
0
 10
193.733222
 20
678.507772
 42
0.001162
  0
VERTEX
  8
0
 10
197.392158
 20
681.865047
 42
0.001163
  0
VERTEX
  8
0
 10
201.015337
 20
685.220685
 42
0.002032
  0
VERTEX
  8
0
 10
204.000000
 20
688.020601
 42
-0.002263
  0
VERTEX
  8
0
 10
206.897036
 20
690.735796
 42
-0.001511
  0
VERTEX
  8
0
 10
210.237409
 20
693.819466
 42
-0.001521
  0
VERTEX
  8
0
 10
213.494173
 20
696.789567
 42
-0.002990
  0
VERTEX
  8
0
 10
216.106072
 20
699.128752
 42
0.003459
  0
VERTEX
  8
0
 10
218.753918
 20
701.504619
 42
0.001639
  0
VERTEX
  8
0
 10
222.135738
 20
704.601892
 42
0.001624
  0
VERTEX
  8
0
 10
225.652462
 20
707.865177
 42
0.002299
  0
VERTEX
  8
0
 10
228.760237
 20
710.794700
 42
-0.002453
  0
VERTEX
  8
0
 10
234.295910
 20
716.009632
 42
-0.001049
  0
VERTEX
  8
0
 10
241.745237
 20
722.929494
 42
-0.001015
  0
VERTEX
  8
0
 10
249.938068
 20
730.477238
 42
-0.001114
  0
VERTEX
  8
0
 10
257.913061
 20
737.761752
 42
0.000666
  0
VERTEX
  8
0
 10
265.149554
 20
744.359825
 42
0.002076
  0
VERTEX
  8
0
 10
269.998968
 20
748.830355
 42
0.002617
  0
VERTEX
  8
0
 10
274.170593
 20
752.749113
 42
0.001695
  0
VERTEX
  8
0
 10
278.957345
 20
757.324070
 42
-0.003592
  0
VERTEX
  8
0
 10
282.108930
 20
760.313422
 42
-0.003243
  0
VERTEX
  8
0
 10
285.411625
 20
763.361434
 42
-0.003249
  0
VERTEX
  8
0
 10
288.406229
 20
766.053965
 42
-0.010311
  0
VERTEX
  8
0
 10
290.457345
 20
767.799959
 42
0.008385
  0
VERTEX
  8
0
 10
292.457843
 20
769.489620
 42
0.003040
  0
VERTEX
  8
0
 10
295.241403
 20
771.951817
 42
0.003014
  0
VERTEX
  8
0
 10
298.256181
 20
774.684310
 42
0.003587
  0
VERTEX
  8
0
 10
301.066580
 20
777.299959
 42
-0.001510
  0
VERTEX
  8
0
 10
304.131502
 20
780.176337
 42
-0.000793
  0
VERTEX
  8
0
 10
307.958608
 20
783.734988
 42
-0.000789
  0
VERTEX
  8
0
 10
311.891414
 20
787.368781
 42
-0.001214
  0
VERTEX
  8
0
 10
315.307647
 20
790.500000
 42
0.000000
  0
VERTEX
  8
0
 10
322.982134
 20
797.500000
 42
0.000000
  0
VERTEX
  8
0
 10
445.741067
 20
798.005929
 42
-0.000851
  0
VERTEX
  8
0
 10
662.904213
 20
798.531487
 42
-0.000118
  0
VERTEX
  8
0
 10
1113.066754
 20
798.748621
 42
-0.000119
  0
VERTEX
  8
0
 10
1563.186426
 20
798.752422
 42
-0.000844
  0
SEQEND
  0
ENDSEC
  0
EOF
